<svg xmlns="http://www.w3.org/2000/svg" xmlns:xlink="http://www.w3.org/1999/xlink" version="1.1" x="0px" y="0px" viewBox="0 0 48 60" style="enable-background:new 0 0 48 48;" xml:space="preserve"><style type="text/css">
	.st0{fill:#231F20;}
</style><path class="st0" d="M38.9,38.4c0.4-2.7,0.9-9.8-4.1-14.8c-2.3-2.3-4.1-4.7-5.2-7c1.4-0.2,2.5-1.4,2.5-2.8c0-1.4-0.9-2.5-2.2-2.8  c0.8-1.1,1.2-2.5,1.2-3.9C31.1,3.2,27.9,0,24,0c-3.9,0-7.1,3.2-7.1,7.1c0,1.4,0.4,2.8,1.2,3.9c-1.3,0.3-2.2,1.4-2.2,2.8  c0,1.4,1.1,2.6,2.5,2.8c-1.1,2.3-2.8,4.7-5.2,7c-5,5-4.5,12.1-4.1,14.8c-2.2,0.5-3.8,2.4-3.8,4.7c0,2.7,2.2,4.9,4.9,4.9h27.7  c2.7,0,4.9-2.2,4.9-4.9C42.7,40.8,41.1,38.9,38.9,38.4z M24,2c2.8,0,5.1,2.3,5.1,5.1c0,1.5-0.6,2.9-1.7,3.8h-6.8  c-1.1-1-1.7-2.3-1.7-3.8C18.9,4.3,21.2,2,24,2z M17.9,13.8c0-0.5,0.4-0.9,0.9-0.9h10.6c0.5,0,0.9,0.4,0.9,0.9s-0.4,0.9-0.9,0.9H18.7  C18.2,14.7,17.9,14.3,17.9,13.8z M14.6,25.1c2.8-2.8,4.8-5.6,5.9-8.4h6.9c1.2,2.8,3.2,5.6,5.9,8.4c4.4,4.4,3.9,11,3.5,13.2H11.1  C10.7,36,10.2,29.5,14.6,25.1z M37.8,46H10.2c-1.6,0-2.9-1.3-2.9-2.9c0-1.6,1.3-2.9,2.9-2.9h27.7c1.6,0,2.9,1.3,2.9,2.9  C40.7,44.7,39.4,46,37.8,46z"/><text x="0" y="63" fill="#000000" font-size="5px" font-weight="bold" font-family="'Helvetica Neue', Helvetica, Arial-Unicode, Arial, Sans-serif">Created by Creative Stall</text><text x="0" y="68" fill="#000000" font-size="5px" font-weight="bold" font-family="'Helvetica Neue', Helvetica, Arial-Unicode, Arial, Sans-serif">from the Noun Project</text></svg>